<svg width="215" height="60" viewBox="0 0 215 60" fill="none" xmlns="http://www.w3.org/2000/svg">
<path d="M43.7055 45.1873L48.6778 44.163C48.6778 44.163 50.032 43.7649 49.7496 44.6778C49.5457 45.3465 46.4609 53.2012 38.2836 57.394C33.0864 60.0582 28.3024 60.0052 26.99 59.9998C23.7745 59.9839 16.0572 59.9468 10.6509 53.9124C4.23035 46.737 6.30606 36.9292 6.53612 35.9102C6.71389 37.306 7.98964 46.1001 15.6598 51.0465C16.6062 51.6568 20.6217 54.1194 26.326 54.0663C35.0889 53.9814 40.6782 48.016 41.7448 46.8325C41.9749 46.5778 42.2102 46.323 42.4402 46.0683C42.5291 45.9303 42.6807 45.718 42.9265 45.5322C43.2349 45.3093 43.533 45.2244 43.7055 45.1873Z" fill="#333333"/>
<path d="M26.0995 6.48349L23.2082 14.3382C23.2082 14.3382 23.0199 14.9274 22.5703 15.06C22.1206 15.1927 11.8623 16.4718 6.12143 26.5343C0.380537 36.5969 5.0339 48.7983 9.01279 53.2936C9.01279 53.2936 -5.97209 40.3332 2.70199 20.8874C2.70199 20.8874 8.67293 6.93461 25.0643 6.13321C25.0695 6.13852 26.2668 6.03768 26.0995 6.48349Z" fill="#333333"/>
<path d="M31.8952 46.0841C30.839 46.0841 29.6208 45.8559 28.8051 44.9961C27.0326 43.1332 27.728 39.9223 29.328 37.7198C31.0534 35.3422 41.5626 21.8564 47.9519 15.0312L48.6054 15.6628C42.2423 22.4561 31.7697 35.8888 30.0547 38.2612C28.711 40.1134 28.0417 42.8785 29.4534 44.3645C30.771 45.7497 33.767 44.9377 33.7983 44.9271C39.5235 42.9687 52.1556 35.5916 52.2811 35.5173L52.7307 36.3081C52.2079 36.6106 39.8948 43.8073 34.0598 45.7975C33.9709 45.824 33.0245 46.0841 31.8952 46.0841Z" fill="#333333"/>
<path d="M28.9116 43.0111C28.3678 43.0111 27.824 42.9155 27.2803 42.7086C26.4751 42.4007 25.8999 41.6949 25.6124 40.6759C24.5928 36.982 27.2437 29.6049 31.6461 23.8678L37.2249 16.6074L37.936 17.17L32.3571 24.4303C27.6776 30.5231 25.6647 37.4756 26.4803 40.4211C26.6842 41.1641 27.0607 41.6418 27.5992 41.8488C30.0984 42.8041 32.6552 40.8404 36.1949 38.1284C37.1412 37.4066 38.1137 36.6583 39.1803 35.8993C44.2363 32.2904 56.8317 22.0686 56.9572 21.9625L57.5219 22.6736C57.3964 22.7745 44.7748 33.0175 39.698 36.6424C38.647 37.3907 37.6745 38.1337 36.7386 38.8555C33.7741 41.127 31.3219 43.0111 28.9116 43.0111Z" fill="#333333"/>
<path d="M25.6834 39.6132C25.4795 39.5336 20.6693 37.4903 24.2822 25.48C27.7853 13.8305 33.5 3.53443 33.5576 3.43359L34.3418 3.88471C34.2843 3.98555 28.6166 14.1967 25.1397 25.7507C21.8039 36.8535 25.971 38.7481 26.0128 38.7641L25.6834 39.6132Z" fill="#333333"/>
<path d="M34.7776 4.26704C35.9385 4.26704 36.8795 3.31183 36.8795 2.13352C36.8795 0.95521 35.9385 0 34.7776 0C33.6168 0 32.6758 0.95521 32.6758 2.13352C32.6758 3.31183 33.6168 4.26704 34.7776 4.26704Z" fill="#333333"/>
<path d="M38.7933 17.687C39.9541 17.687 40.8951 16.7318 40.8951 15.5534C40.8951 14.3751 39.9541 13.4199 38.7933 13.4199C37.6324 13.4199 36.6914 14.3751 36.6914 15.5534C36.6914 16.7318 37.6324 17.687 38.7933 17.687Z" fill="#333333"/>
<path d="M49.4261 16.0874C50.5869 16.0874 51.5279 15.1321 51.5279 13.9538C51.5279 12.7755 50.5869 11.8203 49.4261 11.8203C48.2653 11.8203 47.3242 12.7755 47.3242 13.9538C47.3242 15.1321 48.2653 16.0874 49.4261 16.0874Z" fill="#333333"/>
<path d="M58.6644 23.3686C59.8252 23.3686 60.7662 22.4134 60.7662 21.2351C60.7662 20.0568 59.8252 19.1016 58.6644 19.1016C57.5035 19.1016 56.5625 20.0568 56.5625 21.2351C56.5625 22.4134 57.5035 23.3686 58.6644 23.3686Z" fill="#333333"/>
<path d="M54.2151 37.1479C55.376 37.1479 56.317 36.1927 56.317 35.0144C56.317 33.8361 55.376 32.8809 54.2151 32.8809C53.0543 32.8809 52.1133 33.8361 52.1133 35.0144C52.1133 36.1927 53.0543 37.1479 54.2151 37.1479Z" fill="#333333"/>
<path d="M66.2891 17.9785H80.5419V21.0355H75.2873V30.2755H71.5489V21.0355H66.2891V17.9785Z" fill="#333333"/>
<path d="M82.1719 17.9785H95.515V20.8338H85.9103V22.8028H95.0078V25.3503H85.9103V27.3193H95.7346V30.2755H82.1719V17.9785Z" fill="#333333"/>
<path d="M102.838 24.1084L97.2802 17.9785H102.117L105.907 22.2774L109.698 17.9785H114.534L108.976 24.1084L114.958 30.2755H109.938L105.912 25.8067L101.887 30.2755H96.8672L102.838 24.1084Z" fill="#333333"/>
<path d="M116.32 17.9785H120.059V22.3623H127.943V17.9785H131.682V30.2755H127.943V25.621H120.059V30.2755H116.32V17.9785Z" fill="#333333"/>
<path d="M133.945 22.2907C133.945 21.3938 134.066 20.6614 134.306 20.0829C134.547 19.5044 134.902 19.0479 135.367 18.7136C135.833 18.3792 136.397 18.151 137.061 18.0236C137.726 17.9016 138.478 17.8379 139.32 17.8379H145.317C146.159 17.8379 146.912 17.9016 147.576 18.0236C148.24 18.1457 148.805 18.3792 149.27 18.7136C149.735 19.0479 150.091 19.5044 150.331 20.0829C150.572 20.6614 150.692 21.3991 150.692 22.2907V25.958C150.692 26.8656 150.572 27.6033 150.331 28.1764C150.091 28.7496 149.735 29.2008 149.27 29.5351C148.805 29.8695 148.24 30.0977 147.576 30.2251C146.912 30.3471 146.159 30.4108 145.317 30.4108H139.32C138.478 30.4108 137.726 30.3471 137.061 30.2251C136.397 30.103 135.833 29.8695 135.367 29.5351C134.902 29.2008 134.547 28.7496 134.306 28.1764C134.066 27.6033 133.945 26.8656 133.945 25.958V22.2907ZM137.788 24.7851C137.788 25.2256 137.814 25.6077 137.872 25.9209C137.929 26.2393 138.034 26.494 138.191 26.6851C138.348 26.8762 138.567 27.0195 138.85 27.1097C139.132 27.1999 139.488 27.2477 139.927 27.2477H144.711C145.15 27.2477 145.511 27.2052 145.788 27.1097C146.07 27.0195 146.29 26.8762 146.447 26.6851C146.604 26.494 146.708 26.2393 146.766 25.9209C146.823 25.6024 146.849 25.2256 146.849 24.7851V23.4583C146.849 23.0709 146.818 22.7312 146.755 22.4287C146.692 22.1315 146.577 21.8714 146.41 21.6538C146.243 21.4415 146.007 21.277 145.704 21.1602C145.401 21.0435 145.004 20.9904 144.507 20.9904H140.125C139.629 20.9904 139.231 21.0488 138.928 21.1602C138.625 21.2717 138.39 21.4362 138.222 21.6538C138.055 21.8714 137.94 22.1262 137.877 22.4287C137.814 22.7312 137.783 23.0709 137.783 23.4583V24.7851H137.788Z" fill="#333333"/>
<path d="M152.953 17.9785H158.699L162.929 25.8917L167.159 17.9785H172.905V30.2755H169.266V21.4442H169.235L164.33 30.2755H161.533L156.629 21.4442H156.597V30.2755H152.958V17.9785H152.953Z" fill="#333333"/>
<path d="M180.83 17.9785H185.698L192.401 30.2755H188.239L187.078 28.0995H179.497L178.404 30.2755H174.227L180.83 17.9785ZM180.898 25.4511H185.682L183.256 20.8338L180.898 25.4511Z" fill="#333333"/>
<path d="M193.453 17.9785H197.191V27.0115H211.261V17.9785H215V30.2755H193.453V17.9785ZM202.415 17.9785H206.153V30.2755H202.415V17.9785Z" fill="#333333"/>
<path d="M67.1797 36.5527H77.9452C78.6876 36.5527 79.3359 36.6058 79.8902 36.7119C80.4444 36.8181 80.9097 36.9985 81.2809 37.2533C81.6522 37.508 81.9293 37.8424 82.107 38.2564C82.2848 38.6703 82.3789 39.1745 82.3789 39.7742C82.3789 40.305 82.3319 40.7349 82.243 41.0639C82.1541 41.393 82.0286 41.6583 81.8665 41.86C81.7045 42.0617 81.511 42.2156 81.2914 42.3164C81.0718 42.4173 80.8313 42.5075 80.5751 42.5871V42.6402C81.396 42.741 81.9711 43.0276 82.311 43.4893C82.6508 43.9564 82.8181 44.6516 82.8181 45.5804C82.8181 46.2597 82.724 46.8117 82.541 47.2363C82.358 47.6608 82.0966 47.9899 81.7672 48.2287C81.4326 48.4675 81.0404 48.6268 80.5856 48.7117C80.1307 48.7966 79.634 48.8391 79.0954 48.8391H67.1849V36.5527H67.1797ZM70.9233 41.4248H77.5426C77.8929 41.4248 78.1595 41.3558 78.353 41.2125C78.5412 41.0692 78.6406 40.8251 78.6406 40.4748C78.6406 40.1139 78.5464 39.8592 78.353 39.7212C78.1595 39.5779 77.8929 39.5089 77.5426 39.5089H70.9233V41.4248ZM70.9233 45.8935H77.6262C78.0288 45.8935 78.3582 45.8351 78.604 45.7131C78.8497 45.5963 78.9752 45.3522 78.9752 44.9913C78.9752 44.572 78.8497 44.296 78.604 44.1687C78.3582 44.036 78.0288 43.9723 77.6262 43.9723H70.9233V45.8935Z" fill="#333333"/>
<path d="M84.8047 40.8669C84.8047 39.9699 84.9249 39.2375 85.1654 38.659C85.406 38.0805 85.7615 37.6241 86.2268 37.2898C86.6922 36.9554 87.2568 36.7272 87.9209 36.5998C88.5849 36.4777 89.3378 36.4141 90.1796 36.4141H96.1767C97.0185 36.4141 97.7714 36.4777 98.4354 36.5998C99.0994 36.7219 99.6641 36.9554 100.129 37.2898C100.595 37.6241 100.95 38.0805 101.191 38.659C101.431 39.2375 101.552 39.9752 101.552 40.8669V44.5342C101.552 45.4417 101.431 46.1794 101.191 46.7526C100.95 47.3258 100.595 47.7769 100.129 48.1113C99.6641 48.4456 99.0994 48.6738 98.4354 48.8012C97.7714 48.9233 97.0185 48.987 96.1767 48.987H90.1796C89.3378 48.987 88.5849 48.9233 87.9209 48.8012C87.2568 48.6792 86.6922 48.4456 86.2268 48.1113C85.7615 47.7769 85.406 47.3258 85.1654 46.7526C84.9249 46.1794 84.8047 45.4417 84.8047 44.5342V40.8669ZM88.6424 43.3613C88.6424 43.8018 88.6685 44.1839 88.7261 44.497C88.7836 44.8155 88.8881 45.0702 89.045 45.2613C89.2018 45.4523 89.4214 45.5956 89.7038 45.6859C89.9861 45.7761 90.3417 45.8239 90.7809 45.8239H95.5649C96.0041 45.8239 96.3649 45.7814 96.642 45.6859C96.9243 45.5956 97.1439 45.4523 97.3008 45.2613C97.4576 45.0702 97.5622 44.8155 97.6197 44.497C97.6772 44.1786 97.7034 43.8018 97.7034 43.3613V42.0345C97.7034 41.647 97.672 41.3074 97.6093 41.0048C97.5465 40.7076 97.4315 40.4476 97.2642 40.23C97.0969 40.0177 96.8616 39.8532 96.5583 39.7364C96.2551 39.6197 95.8577 39.5666 95.361 39.5666H90.9795C90.4828 39.5666 90.0855 39.625 89.7822 39.7364C89.479 39.8479 89.2437 40.0124 89.0764 40.23C88.9091 40.4476 88.794 40.7023 88.7313 41.0048C88.6685 41.3074 88.6372 41.647 88.6372 42.0345V43.3613H88.6424Z" fill="#333333"/>
<path d="M103.539 40.8669C103.539 39.9699 103.659 39.2375 103.9 38.659C104.14 38.0805 104.496 37.6241 104.961 37.2898C105.427 36.9554 105.991 36.7272 106.655 36.5998C107.319 36.4777 108.072 36.4141 108.914 36.4141H113.311C114.634 36.4141 115.695 36.4937 116.495 36.6529C117.295 36.8121 117.902 37.0722 118.315 37.4331C118.728 37.794 119 38.2716 119.125 38.8607C119.251 39.4498 119.303 40.1822 119.293 41.0526H115.554V40.7129C115.554 40.2724 115.403 39.9699 115.099 39.8107C114.796 39.6515 114.362 39.5719 113.803 39.5719H109.724C109.228 39.5719 108.83 39.6303 108.527 39.7417C108.224 39.8532 107.989 40.0177 107.821 40.2353C107.654 40.4529 107.539 40.7076 107.476 41.0102C107.413 41.3127 107.382 41.6523 107.382 42.0398V43.3666C107.382 43.8071 107.408 44.1892 107.466 44.5023C107.523 44.8208 107.628 45.0755 107.785 45.2666C107.941 45.4576 108.161 45.6009 108.443 45.6912C108.726 45.7814 109.081 45.8292 109.52 45.8292H113.515C113.928 45.8292 114.278 45.8132 114.561 45.7761C114.843 45.7389 115.068 45.6646 115.235 45.5479C115.403 45.4311 115.523 45.2613 115.596 45.0384C115.669 44.8155 115.706 44.513 115.706 44.1308H119.444V45.2878C119.444 45.8079 119.387 46.2909 119.266 46.742C119.151 47.1878 118.927 47.5806 118.602 47.9149C118.278 48.2493 117.823 48.5146 117.238 48.7057C116.652 48.8968 115.889 48.9923 114.948 48.9923H108.914C108.072 48.9923 107.319 48.9286 106.655 48.8065C105.991 48.6845 105.427 48.4509 104.961 48.1166C104.496 47.7822 104.14 47.3311 103.9 46.7579C103.659 46.1847 103.539 45.447 103.539 44.5395V40.8669Z" fill="#333333"/>
<path d="M129.441 37.1947H127.637V36.457H132.123V37.1947H130.324V40.3844H129.441V37.1947Z" fill="#666666"/>
<path d="M133.168 36.4609H137.241V37.1509H134.041V38.0797H137.084V38.6953H134.041V39.6984H137.272V40.3883H133.168V36.4609Z" fill="#666666"/>
<path d="M140.142 38.3783L138.28 36.457H139.457L140.869 37.9484L142.286 36.457H143.446L141.59 38.3623L143.593 40.3791H142.385L140.863 38.7922L139.337 40.3791H138.145L140.142 38.3783Z" fill="#666666"/>
<path d="M144.625 36.4609H145.509V38.0213H148.531V36.4609H149.414V40.3883H148.531V38.7537H145.509V40.3883H144.625V36.4609Z" fill="#666666"/>
<path d="M155.623 36.8082C155.785 36.9886 155.868 37.2434 155.905 37.6361C155.921 37.8166 155.926 38.0289 155.926 38.4641C155.926 39.4459 155.832 39.8227 155.539 40.0881C155.325 40.2738 155.037 40.3694 154.556 40.4012C154.373 40.4118 153.678 40.4225 153.144 40.4225C151.973 40.4225 151.66 40.3853 151.33 40.2049C151.079 40.0616 150.912 39.7909 150.86 39.4035C150.823 39.1434 150.812 38.9311 150.812 38.2889C150.812 37.3708 150.896 37.0046 151.173 36.7604C151.382 36.5747 151.649 36.4845 152.146 36.442C152.339 36.4261 152.914 36.4102 153.615 36.4102C154.974 36.4208 155.335 36.4898 155.623 36.8082ZM151.717 38.4269C151.717 39.1912 151.775 39.4406 151.989 39.5521C152.203 39.6688 152.386 39.69 153.484 39.69C154.472 39.69 154.718 39.6476 154.875 39.4725C155.006 39.3238 155.048 39.0744 155.048 38.4057C155.048 37.1744 155.037 37.1638 153.38 37.1638C151.738 37.1638 151.717 37.1797 151.717 38.4269Z" fill="#666666"/>
<path d="M162.108 40.3844H161.225V37.1894H158.501V38.5852C158.501 39.1478 158.443 39.4663 158.281 39.7582C158.03 40.2093 157.633 40.4163 157.031 40.4163H156.969V39.7051C157.204 39.7051 157.382 39.5989 157.486 39.4026C157.586 39.2327 157.617 39.0204 157.617 38.5906V36.457H162.108V40.3844Z" fill="#666666"/>
<path d="M168.31 36.8082C168.472 36.9886 168.556 37.2434 168.593 37.6361C168.608 37.8166 168.613 38.0289 168.613 38.4641C168.613 39.4459 168.519 39.8227 168.227 40.0881C168.012 40.2738 167.725 40.3694 167.244 40.4012C167.061 40.4118 166.365 40.4225 165.832 40.4225C164.661 40.4225 164.342 40.3853 164.018 40.2049C163.767 40.0616 163.599 39.7909 163.547 39.4035C163.51 39.1434 163.5 38.9311 163.5 38.2889C163.5 37.3708 163.584 37.0046 163.861 36.7604C164.065 36.5747 164.337 36.4845 164.833 36.442C165.027 36.4261 165.602 36.4102 166.302 36.4102C167.662 36.4208 168.023 36.4898 168.31 36.8082ZM164.405 38.4269C164.405 39.1912 164.462 39.4406 164.676 39.5521C164.891 39.6688 165.074 39.69 166.172 39.69C167.16 39.69 167.406 39.6476 167.563 39.4725C167.693 39.3238 167.735 39.0744 167.735 38.4057C167.735 37.1744 167.725 37.1638 166.067 37.1638C164.425 37.1638 164.405 37.1797 164.405 38.4269Z" fill="#666666"/>
<path d="M173.685 36.4609V37.1987H170.888V40.3883H170.004V36.4609H173.685Z" fill="#666666"/>
<path d="M175.653 36.4609V39.5232L178.456 36.4609H179.559V40.3883H178.675V37.326L175.873 40.3883H174.77V36.4609H175.653Z" fill="#666666"/>
<path d="M181.927 36.4609V39.5232L184.729 36.4609H185.832V40.3883H184.949V37.326L182.146 40.3883H181.043V36.4609H181.927Z" fill="#666666"/>
<path d="M132.746 47.5324V47.5961C132.746 48.1534 132.689 48.4347 132.527 48.6098C132.26 48.9123 131.899 48.9813 130.655 48.9813C129.128 48.9813 128.846 48.9495 128.506 48.7637C128.286 48.6416 128.145 48.4293 128.067 48.1268C128.014 47.9252 127.988 47.4687 127.988 46.9168C127.988 45.8235 128.098 45.452 128.501 45.2238C128.83 45.038 129.222 44.9902 130.435 44.9902C131.763 44.9902 132.197 45.0645 132.448 45.3458C132.61 45.521 132.694 45.8606 132.699 46.3489H131.857C131.857 45.7757 131.742 45.7226 130.482 45.7226C129.578 45.7226 129.322 45.7439 129.139 45.8447C128.919 45.9615 128.872 46.1791 128.872 47.0282C128.872 48.1693 128.966 48.2595 130.158 48.2595L131.329 48.2383C131.742 48.1958 131.889 48.0366 131.889 47.6333V47.543H132.746V47.5324Z" fill="#666666"/>
<path d="M134.117 45.0215H137.422C138.373 45.0215 138.713 45.2922 138.713 46.0458C138.713 46.4067 138.629 46.6508 138.467 46.757C138.337 46.8472 138.222 46.8843 137.965 46.9215C138.295 46.9533 138.425 46.9852 138.582 47.0807C138.76 47.1868 138.859 47.4628 138.859 47.8343C138.859 48.6304 138.499 48.9489 137.589 48.9489H134.117V45.0215ZM137.077 46.6349C137.432 46.6349 137.563 46.619 137.662 46.5659C137.772 46.5022 137.829 46.3695 137.829 46.1891C137.829 45.9874 137.767 45.8494 137.646 45.7804C137.563 45.7274 137.422 45.7061 137.165 45.7061H134.99V46.6349H137.077ZM137.265 48.2642C137.798 48.2642 137.96 48.1475 137.96 47.7547C137.96 47.5477 137.897 47.3938 137.782 47.3248C137.688 47.2718 137.526 47.2505 137.207 47.2505H134.985V48.2695H137.265V48.2642Z" fill="#666666"/>
<path d="M143.968 48.9489V47.7229H141.835C141.249 47.7229 141.123 47.8343 141.123 48.3598V48.9489H140.235V48.174C140.235 47.776 140.36 47.5371 140.637 47.431C140.742 47.3885 140.831 47.3779 141.155 47.3567C140.653 47.293 140.475 47.2187 140.35 47.0382C140.229 46.8737 140.172 46.6243 140.172 46.2793C140.172 45.7857 140.266 45.4726 140.475 45.2762C140.674 45.0958 140.982 45.0215 141.599 45.0215H144.846V48.9489H143.968ZM143.968 45.7539H141.85C141.202 45.7539 141.066 45.8653 141.066 46.4014C141.066 46.8843 141.223 46.9958 141.871 46.9958H143.973V45.7539H143.968Z" fill="#666666"/>
<path d="M149.324 46.6576C149.622 46.6576 149.785 46.6363 149.889 46.5726C150.02 46.4983 150.098 46.355 150.098 46.1852C150.098 45.9888 150.02 45.8668 149.858 45.7978C149.717 45.7341 149.398 45.7129 148.566 45.7129C147.751 45.7129 147.5 45.7341 147.306 45.8296C147.196 45.8827 147.149 46.0048 147.128 46.2861L147.123 46.3338H146.281C146.292 45.697 146.417 45.3573 146.7 45.1928C146.993 45.0282 147.426 44.9805 148.723 44.9805H148.838C149.743 44.9805 150.067 45.0176 150.36 45.1291C150.794 45.2989 150.992 45.5802 150.992 46.0578C150.992 46.5567 150.757 46.8592 150.286 46.9548C150.773 47.0768 150.992 47.3422 150.992 47.8199C150.992 48.1914 150.862 48.478 150.59 48.6849C150.443 48.7964 150.166 48.8972 149.889 48.9344C149.706 48.9556 149.079 48.9821 148.535 48.9821C147.123 48.9821 146.721 48.9132 146.459 48.6213C146.287 48.4249 146.234 48.1914 146.234 47.597V47.5333H147.092V47.6235C147.092 48.0003 147.202 48.1436 147.552 48.2073C147.704 48.2285 148.101 48.2497 148.666 48.2497C149.209 48.2497 149.497 48.2391 149.68 48.2073C149.952 48.1595 150.098 47.9897 150.098 47.7296C150.098 47.5545 150.041 47.4377 149.915 47.3581C149.8 47.2944 149.67 47.2732 149.33 47.2732H148.206V46.6576H149.324Z" fill="#666666"/>
<path d="M153.177 45.0215V48.0838L155.979 45.0215H157.082V48.9489H156.199V45.8866L153.396 48.9489H152.293V45.0215H153.177Z" fill="#666666"/>
<path d="M161.345 45.0215V48.0838L164.147 45.0215H165.25V48.9489H164.367V45.8866L161.564 48.9489H160.461V45.0215H161.345Z" fill="#666666"/>
<path d="M168.63 45.0215H171.621C172.112 45.0215 172.322 45.0374 172.499 45.0958C172.975 45.2444 173.142 45.5734 173.142 46.3589C173.142 46.9586 173.048 47.2877 172.813 47.4947C172.609 47.6751 172.322 47.7441 171.72 47.7441H169.503V48.9436H168.625V45.0215H168.63ZM171.48 47.017C172.097 47.017 172.254 46.8949 172.254 46.412C172.254 45.8813 172.112 45.7539 171.516 45.7539H169.509V47.017H171.48Z" fill="#666666"/>
<path d="M174.422 45.0215H178.495V45.7114H175.295V46.6402H178.338V47.2558H175.295V48.2589H178.531V48.9489H174.427V45.0215H174.422Z" fill="#666666"/>
<path d="M186.67 48.9489H179.852V45.0215H180.735V48.2165H182.816V45.0215H183.7V48.2165H185.786V45.0215H186.67V48.9489Z" fill="#666666"/>
<path d="M188.152 45.0215H192.225V45.7114H189.025V46.6402H192.068V47.2558H189.025V48.2589H192.262V48.9489H188.158V45.0215H188.152Z" fill="#666666"/>
<path d="M193.578 45.0215H194.462V46.5818H197.484V45.0215H198.367V48.9489H197.484V47.3142H194.462V48.9489H193.578V45.0215Z" fill="#666666"/>
<path d="M200.739 45.0215V48.0838L203.542 45.0215H204.645V48.9489H203.761V45.8866L200.959 48.9489H199.855V45.0215H200.739Z" fill="#666666"/>
<path d="M209.882 48.9489V47.7229H207.749C207.163 47.7229 207.038 47.8343 207.038 48.3598V48.9489H206.149V48.174C206.149 47.776 206.274 47.5371 206.551 47.431C206.656 47.3885 206.745 47.3779 207.069 47.3567C206.567 47.293 206.389 47.2187 206.264 47.0382C206.143 46.8737 206.086 46.6243 206.086 46.2793C206.086 45.7857 206.18 45.4726 206.389 45.2762C206.588 45.0958 206.896 45.0215 207.513 45.0215H210.76V48.9489H209.882ZM209.882 45.7539H207.764C207.116 45.7539 206.975 45.8653 206.975 46.4014C206.975 46.8843 207.132 46.9958 207.78 46.9958H209.882V45.7539Z" fill="#666666"/>
</svg>
