<?xml version="1.0" encoding="UTF-8"?> <svg xmlns="http://www.w3.org/2000/svg" width="85" height="85" viewBox="0 0 85 85" fill="none"><path d="M42.5013 7.25996e-05C66.0881 0.0428217 85.0847 19.0768 84.9618 42.5434C84.8389 66.1436 65.9465 84.9959 42.4639 84.9505C18.8824 84.9078 -0.132891 65.855 0.00069961 42.4072C0.136962 18.799 19.0187 -0.0426765 42.5013 7.25996e-05ZM19.3928 30.1435C19.3634 30.6538 19.3313 30.9745 19.3313 31.2977C19.3286 39.1636 19.326 47.0321 19.3313 54.8979C19.334 58.0587 20.8916 59.603 24.0764 59.6056C36.3454 59.6083 48.6144 59.6083 60.8834 59.6056C64.111 59.6056 65.6366 58.0613 65.6366 54.8044C65.6392 47.0054 65.6392 39.2036 65.6366 31.4046C65.6366 31.0519 65.6072 30.6966 65.5831 30.1435C65.153 30.4374 64.8644 30.6271 64.5812 30.8275C58.9544 34.8139 53.3329 38.8109 47.6953 42.7839C44.2834 45.1885 40.6177 45.1458 37.1951 42.7224C31.5949 38.7548 25.9948 34.7898 20.392 30.8248C20.1061 30.6191 19.8149 30.4294 19.3928 30.1435ZM64.8991 27.135C63.8732 25.6843 62.5239 25.3423 60.9823 25.3423C48.6518 25.3529 36.3214 25.3476 23.9936 25.3529C23.4967 25.3529 22.9863 25.3663 22.5027 25.4732C21.5035 25.6923 20.6565 26.1732 20.1035 27.1324C20.4054 27.3568 20.6645 27.5599 20.9317 27.7496C26.8257 31.931 32.7198 36.1124 38.6138 40.2911C41.3551 42.2362 43.5994 42.2388 46.33 40.3071C48.8041 38.5571 51.2756 36.8044 53.747 35.0516C57.4394 32.4333 61.1292 29.8095 64.8991 27.135Z" fill="#333333"></path><path d="M19.3943 30.1421C19.8164 30.4279 20.1076 30.6176 20.3908 30.818C25.991 34.783 31.5911 38.7507 37.1939 42.7156C40.6165 45.139 44.2822 45.1817 47.6941 42.7771C53.3317 38.8041 58.9505 34.8071 64.58 30.8207C64.8632 30.6203 65.1545 30.4279 65.582 30.1367C65.606 30.6898 65.6354 31.0425 65.6354 31.3978C65.6381 39.1969 65.6381 46.9986 65.6354 54.7976C65.6354 58.0572 64.1098 59.5989 60.8822 59.5989C48.6133 59.6015 36.3443 59.6015 24.0753 59.5989C20.8905 59.5989 19.3301 58.0519 19.3301 54.8911C19.3275 47.0253 19.3275 39.1568 19.3301 31.2909C19.3301 30.973 19.3649 30.6524 19.3943 30.1421Z" fill="white"></path><path d="M64.8946 27.1365C61.1246 29.8137 57.4375 32.4348 53.7451 35.0531C51.2737 36.8058 48.7996 38.5586 46.3281 40.3086C43.5975 42.243 41.3559 42.2377 38.6119 40.2926C32.7179 36.1112 26.8212 31.9325 20.9298 27.7511C20.6626 27.5614 20.4035 27.3583 20.1016 27.1339C20.6546 26.1747 21.4989 25.6938 22.5009 25.4747C22.9845 25.3705 23.4921 25.3571 23.9917 25.3544C36.3222 25.3491 48.6526 25.3544 60.9804 25.3438C62.5167 25.3437 63.8686 25.6857 64.8946 27.1365Z" fill="white"></path></svg> 