<?xml version="1.0" encoding="UTF-8"?> <svg xmlns="http://www.w3.org/2000/svg" width="74" height="82" viewBox="0 0 74 82" fill="none"><path d="M1.01911 17.6148L1.05859 17.4181C1.52951 15.0716 2.12721 12.7454 3.03179 10.5296C3.6434 9.03148 4.71965 6.74501 4.71965 6.74501C5.56232 5.3454 6.5119 4.013 7.55991 2.75972L8.09538 2.11937C9.84491 0.375861 12.5365 -0.000749826 14.6974 1.19561L14.8468 1.27835L28.3049 13.4708C28.6149 13.7517 28.8893 14.0696 29.1219 14.4173C29.4486 14.9056 29.6887 15.4466 29.8317 16.0165L29.8622 16.1381C29.9787 16.6025 30.0376 17.0794 30.0376 17.5582V18.3217C30.0376 19.0116 29.9527 19.6988 29.7848 20.3678C29.4003 21.9008 28.5479 23.276 27.3462 24.3026L26.2399 25.2476L23.7081 27.3501L20.3324 30.7142L20.2661 30.8463C19.7644 31.8463 19.6382 32.9931 19.9104 34.0783C20.4662 36.5709 21.5632 38.9109 23.1237 40.9325L24.974 43.3296L29.6156 48.7963L34.6792 55.104L34.9745 55.4571C36.1712 56.8883 37.651 58.0566 39.3208 58.8886L41.4306 59.7296H41.7706C42.667 59.7296 43.5613 59.6414 44.4404 59.4662C44.9633 59.3619 45.4702 59.1886 45.9475 58.9508L46.9162 58.4681L51.5578 55.5245L55.241 52.9552C55.5981 52.706 55.9731 52.4834 56.3629 52.2892C57.5501 51.6977 58.9725 51.8481 60.0096 52.6749L60.4191 53.0014C62.6562 54.6735 64.6229 56.6798 66.25 58.9499L68.0145 61.4117L72.3062 67.2439C72.5372 67.5579 72.7049 67.9139 72.7997 68.292L73.2169 69.9551C73.4003 70.6862 73.3332 71.4576 73.0262 72.1459C72.2361 73.9175 70.9188 75.4022 69.254 76.3977L69.1038 76.4875C66.701 77.9242 64.1128 79.025 61.4112 79.7593L59.8704 80.1781C57.4339 80.8403 54.9202 81.1758 52.3953 81.1758H49.4402C48.6031 81.1758 47.7678 81.1007 46.9441 80.9515L45.0573 80.6096C44.0496 80.427 43.0673 80.1252 42.131 79.7105C40.5434 79.0073 39.0358 78.136 37.6339 77.1115L33.4133 74.0271L26.2399 67.7194L18.0023 58.8886L10.6272 48.7963L6.1572 41.5576C4.64071 39.1018 3.39593 36.4883 2.4448 33.7632L1.59267 31.3218C0.869381 29.2495 0.5 27.0702 0.5 24.8754V22.8396C0.5 21.0851 0.673885 19.335 1.01911 17.6148Z" fill="#333333" stroke="#333333"></path></svg> 