<?xml version="1.0" encoding="UTF-8"?> <svg xmlns="http://www.w3.org/2000/svg" width="97" height="85" viewBox="0 0 97 85" fill="none"><path d="M80.5635 46.6338C82.0159 47.6705 82.8709 49.3513 82.8545 51.1357L82.5684 82.2539C82.557 83.4901 81.7337 84.5718 80.5449 84.9111C80.3376 84.9703 80.1229 85 79.9072 85H59.375V58.9307C59.375 57.6154 58.8881 56.3464 58.0078 55.3691C56.9817 54.2301 55.5204 53.5801 53.9873 53.5801H40.5293C39.3149 53.5801 38.2229 54.3189 37.7715 55.4463L37.6748 55.6865C37.3574 56.4793 37.1944 57.3257 37.1943 58.1797V85H16.0068C14.8241 84.8031 13.9051 83.8627 13.7354 82.6758L13.6895 82.3545V50.2725C13.4847 49.2496 13.8422 48.195 14.627 47.5078L48.1191 18.1904L80.5635 46.6338ZM68.373 17.3496L68.6455 9.92188L68.7695 9.71582C69.2908 8.84791 70.3011 8.40054 71.2939 8.59863H75.5977L75.9238 8.55273C77.0311 8.39504 78.062 9.14973 78.2461 10.2529L78.5547 26.1533L95.8916 41.1426C96.0443 41.2747 96.1694 41.4357 96.2598 41.6162L96.2861 41.668C96.6037 42.3024 96.6339 43.0426 96.3701 43.7012C96.2067 44.1092 95.969 44.4835 95.6689 44.8047L91.9551 48.7812C91.6506 49.1073 91.258 49.3382 90.8252 49.4463C90.4041 49.5515 89.9579 49.474 89.5967 49.2334L89.1709 48.9492L48.4502 13.2295L8.06152 48.6191L6.83301 49.4375C6.37011 49.7456 5.77091 49.7595 5.29395 49.4736C4.71595 49.1271 4.20447 48.6803 3.7832 48.1543L0.446289 43.9883L0.298828 43.7666C-0.0230114 43.2838 -0.0886508 42.6741 0.123047 42.1338C0.241681 41.831 0.432192 41.5618 0.677734 41.3486L48.3076 0L68.373 17.3496Z" fill="#333333"></path><path d="M80.5635 46.6338C82.0159 47.6705 82.8709 49.3513 82.8545 51.1357L82.5684 82.2539C82.557 83.4901 81.7337 84.5718 80.5449 84.9111C80.3376 84.9703 80.1229 85 79.9072 85H59.375V58.9307C59.375 57.6154 58.8881 56.3464 58.0078 55.3691C56.9817 54.2301 55.5204 53.5801 53.9873 53.5801H40.5293C39.3149 53.5801 38.2229 54.3189 37.7715 55.4463L37.6748 55.6865C37.3574 56.4793 37.1944 57.3257 37.1943 58.1797V85H16.0068C14.8241 84.8031 13.9051 83.8627 13.7354 82.6758L13.6895 82.3545V50.2725C13.4847 49.2496 13.8422 48.195 14.627 47.5078L48.1191 18.1904L80.5635 46.6338ZM68.373 17.3496L68.6455 9.92188L68.7695 9.71582C69.2908 8.84791 70.3011 8.40054 71.2939 8.59863H75.5977L75.9238 8.55273C77.0311 8.39504 78.062 9.14973 78.2461 10.2529L78.5547 26.1533L95.8916 41.1426C96.0443 41.2747 96.1694 41.4357 96.2598 41.6162L96.2861 41.668C96.6037 42.3024 96.6339 43.0426 96.3701 43.7012C96.2067 44.1092 95.969 44.4835 95.6689 44.8047L91.9551 48.7812C91.6506 49.1073 91.258 49.3382 90.8252 49.4463C90.4041 49.5515 89.9579 49.474 89.5967 49.2334L89.1709 48.9492L48.4502 13.2295L8.06152 48.6191L6.83301 49.4375C6.37011 49.7456 5.77091 49.7595 5.29395 49.4736C4.71595 49.1271 4.20447 48.6803 3.7832 48.1543L0.446289 43.9883L0.298828 43.7666C-0.0230114 43.2838 -0.0886508 42.6741 0.123047 42.1338C0.241681 41.831 0.432192 41.5618 0.677734 41.3486L48.3076 0L68.373 17.3496Z" stroke="#333333"></path></svg> 